<?xml version="1.0" encoding="UTF-8"?>
<svg version="1.1" xmlns="http://www.w3.org/2000/svg" width="1379" height="1383">
<path d="M0 0 C-2.67892165 2.09437458 -5.34853204 3.81450514 -8.359375 5.390625 C-9.21571533 5.84501953 -10.07205566 6.29941406 -10.9543457 6.76757812 C-11.87691162 7.25677734 -12.79947754 7.74597656 -13.75 8.25 C-46.22826881 25.74225857 -76.41022944 47.49222463 -104.4375 71.4375 C-108.51549796 74.91641531 -112.63307435 78.33006666 -116.8125 81.6875 C-120.74117422 84.88168295 -124.37089272 88.21054268 -127.85546875 91.8828125 C-129.73124529 93.73467204 -131.65138031 95.4396262 -133.64941406 97.15600586 C-137.85022179 100.82100217 -141.8190894 104.67418283 -145.75390625 108.62109375 C-146.45845444 109.32468521 -147.16300262 110.02827667 -147.88890076 110.75318909 C-149.36653367 112.23014648 -150.84292457 113.70834742 -152.31811523 115.18774414 C-154.55666481 117.43165085 -156.80050473 119.67016704 -159.04492188 121.90820312 C-160.48990404 123.35384618 -161.93457592 124.79979945 -163.37890625 126.24609375 C-164.03951553 126.9046788 -164.70012482 127.56326385 -165.38075256 128.24180603 C-169.24596479 132.12622542 -172.93085643 136.11935408 -176.50856018 140.27044678 C-178.42230757 142.4897304 -180.39781801 144.64972047 -182.375 146.8125 C-186.21806298 151.07610017 -189.89322734 155.44552273 -193.5 159.91015625 C-195.32003572 162.15960665 -197.15218882 164.39473792 -199 166.62109375 C-206.54111628 175.74280044 -213.59765834 185.1299276 -220.43115234 194.79150391 C-221.92613004 196.89601188 -223.438433 198.98671658 -224.95703125 201.07421875 C-272.63929441 266.98957903 -306.42576821 346.43228578 -313 428 C-313.11085938 429.2065625 -313.22171875 430.413125 -313.3359375 431.65625 C-321.41951358 533.90256371 -283.44934737 641.98324423 -217.25 719.875 C-204.84838798 734.3566175 -204.84838798 734.3566175 -190.953125 747.35546875 C-188.57217133 749.36023174 -186.33193281 751.49485872 -184.0625 753.625 C-176.77095669 760.26281874 -168.92760838 766.14762671 -161 772 C-160.30600098 772.51353027 -159.61200195 773.02706055 -158.89697266 773.55615234 C-147.70196219 781.78629837 -136.06103376 789.10860027 -124 796 C-123.06768555 796.53270508 -122.13537109 797.06541016 -121.17480469 797.61425781 C-80.74594734 820.51623254 -36.87213109 835.60889316 9 843 C9.97146973 843.16371094 10.94293945 843.32742188 11.94384766 843.49609375 C42.99251499 848.52287247 77.56875436 848.56929146 108.59423828 843.38916016 C112.56890372 842.74621143 116.56510469 842.28891045 120.5625 841.8125 C122.708418 841.54233837 124.85429031 841.27181121 127 841 C123.12402851 844.2904997 119.11416354 846.80233453 114.6875 849.25 C113.98455811 849.64058594 113.28161621 850.03117188 112.55737305 850.43359375 C66.0561572 876.06083833 15.73394167 889.28137501 -37 894 C-37.8048584 894.07202637 -38.6097168 894.14405273 -39.43896484 894.21826172 C-146.34439473 903.17257122 -263.5916605 869.0616781 -358.20117188 794.53759766 C-371.86891035 782.85472349 -384.97334692 770.2214615 -396 756 C-397.07670866 754.66161975 -398.15495889 753.32447887 -399.234375 751.98828125 C-436.49995949 705.49011597 -457.52959449 648.89603432 -466.8125 590.5 C-467.00763184 589.274021 -467.20276367 588.04804199 -467.40380859 586.78491211 C-470.40634562 566.75165647 -471.37913791 546.8683139 -471.3125 526.625 C-471.31034485 525.44101624 -471.3081897 524.25703247 -471.30596924 523.03717041 C-471.25106511 504.18030023 -470.66369203 485.68857721 -468 467 C-467.85081116 465.95054199 -467.85081116 465.95054199 -467.6986084 464.87988281 C-460.33316485 413.5403287 -446.37477236 363.51637492 -424.20117188 316.54638672 C-423.34713821 314.73590478 -422.50022193 312.92205799 -421.65820312 311.10595703 C-404.32136445 273.71522369 -382.62542995 238.30037012 -357 206 C-356.57493164 205.46310547 -356.14986328 204.92621094 -355.71191406 204.37304688 C-351.04563935 198.50708921 -346.16288846 192.87002879 -341.11328125 187.33203125 C-339.22623463 185.24965264 -337.38941767 183.13496936 -335.5625 181 C-331.28964759 176.08970574 -326.63343498 171.56639171 -322 167 C-319.01368604 164.02389566 -316.04189478 161.03372377 -313.07421875 158.0390625 C-311.6120367 156.56765116 -310.1497957 155.0962984 -308.6875 153.625 C-307.96626953 152.89539063 -307.24503906 152.16578125 -306.50195312 151.4140625 C-301.83585833 146.72704351 -297.02654188 142.29620076 -292 138 C-290.88223003 137.0267102 -289.76501619 136.05278123 -288.6484375 135.078125 C-280.62419279 128.12693205 -272.43064388 121.45145478 -264 115 C-262.91404541 114.16710449 -262.91404541 114.16710449 -261.80615234 113.31738281 C-243.52086882 99.33564807 -224.84828838 85.93241657 -205.02734375 74.20410156 C-203.07214103 73.04284677 -201.12824523 71.86491393 -199.1875 70.6796875 C-142.83875872 36.33845831 -68.09438154 -4.04521078 0 0 Z " fill="#1474A2" transform="translate(615,58)"/>
<path d="M0 0 C5.45786282 1.54319763 10.01814426 4.08974863 14.875 6.9375 C16.12639771 7.66839844 16.12639771 7.66839844 17.40307617 8.4140625 C30.6856783 16.26878133 43.06069234 25.24070075 55 35 C55.53689453 35.43779785 56.07378906 35.8755957 56.62695312 36.32666016 C70.14139457 47.40669584 83.48327945 59.27275208 94.8828125 72.546875 C96.50687341 74.42862824 98.1474446 76.28847712 99.8046875 78.140625 C117.48630488 98.03002374 132.73458863 119.94815335 146 143 C146.58297852 144.01151123 146.58297852 144.01151123 147.17773438 145.04345703 C150.20047741 150.31865471 153.12813556 155.64127135 156 161 C156.43038574 161.80195801 156.86077148 162.60391602 157.30419922 163.43017578 C183.74668592 213.22676085 199.6307293 268.85986446 206.25 324.6875 C206.33326538 325.3874408 206.41653076 326.08738159 206.50231934 326.80853271 C208.4801158 343.669521 209.20817989 360.40696203 209.1875 377.375 C209.18659363 378.75629593 209.18659363 378.75629593 209.18566895 380.16549683 C209.07151597 444.4983533 193.00111985 508.15971046 155 561 C154.46761719 561.74588379 153.93523438 562.49176758 153.38671875 563.26025391 C146.01359153 573.55225739 138.39549061 583.52203234 130 593 C129.21238281 593.89847656 128.42476562 594.79695312 127.61328125 595.72265625 C121.4611406 602.58948828 114.99002836 609.14155263 108.5 615.6875 C107.2008667 617.00621094 107.2008667 617.00621094 105.87548828 618.3515625 C99.89693812 624.33798954 93.61143003 629.72851865 87 635 C85.70635908 636.07288467 84.41560945 637.14927348 83.12890625 638.23046875 C5.94888991 702.49203315 -95.0692946 734.80715784 -212.609375 742.203125 C-213.97657302 742.21018879 -215.34377069 742.21732148 -216.71096802 742.22451782 C-221.05731751 742.24404751 -225.40361074 742.24920988 -229.75 742.25 C-230.49063942 742.25029457 -231.23127884 742.25058914 -231.99436188 742.25089264 C-254.12782182 742.25231531 -276.03373339 742.08847739 -298 739 C-299.40298458 738.80998316 -300.80597973 738.62004439 -302.20898438 738.43017578 C-361.31875509 730.28083635 -418.42683451 710.96694895 -472 685 C-472.58976624 684.71554016 -473.17953247 684.43108032 -473.78717041 684.13800049 C-491.66377717 675.51526388 -509.02569405 666.31263535 -526 656 C-526.91072266 655.45102051 -527.82144531 654.90204102 -528.75976562 654.33642578 C-552.20633857 640.18024223 -575.0760532 624.71455948 -596 607 C-597.04251137 606.13096145 -598.08550528 605.26250152 -599.12890625 604.39453125 C-616.57882966 589.82741303 -634.33777544 574.25886086 -648 556 C-648.45487793 555.39494629 -648.90975586 554.78989258 -649.37841797 554.16650391 C-659.83993528 540.21439201 -659.83993528 540.21439201 -662 536 C-661.67 535.34 -661.34 534.68 -661 534 C-659.58074219 534.90878906 -659.58074219 534.90878906 -658.1328125 535.8359375 C-643.58765356 545.07941581 -628.62510152 553.43900141 -613.12109375 560.96386719 C-610.92679022 562.03576224 -608.74489665 563.13065261 -606.5625 564.2265625 C-536.80046014 598.81753391 -458.21935176 618.41065571 -381 626 C-379.88947266 626.11714355 -378.77894531 626.23428711 -377.63476562 626.35498047 C-340.81968356 630.15739763 -302.73020557 629.4500391 -266 625 C-264.96891113 624.87625 -264.96891113 624.87625 -263.91699219 624.75 C-184.41750784 615.08666857 -107.81954683 583.9414272 -48 530 C-47.00154126 529.11301194 -46.00285407 528.22628095 -45.00390625 527.33984375 C-33.40203563 516.90288279 -21.7071731 506.06487194 -12.15234375 493.6875 C-10.24057954 491.30039695 -8.25600567 489.04593938 -6.20703125 486.77734375 C-2.13104605 482.21770323 1.60117213 477.46780995 5.25 472.5625 C5.89839844 471.69197998 6.54679688 470.82145996 7.21484375 469.92456055 C25.30856777 445.4433787 40.39496532 419.20104147 54 392 C54.40831055 391.1965918 54.81662109 390.39318359 55.23730469 389.56542969 C81.65109651 337.46569276 89.79058491 276.03493643 86.25 218.25 C86.20709839 217.54444977 86.16419678 216.83889954 86.11999512 216.11196899 C81.37009814 140.20169639 54.15400995 59.95377414 1.36328125 3.671875 C0 2 0 2 0 0 Z " fill="#1CBAF6" transform="translate(900,365)"/>
<path d="M0 0 C55.66262292 -1.41096636 111.69611835 12.05686541 161.77246094 36.06640625 C162.82014648 36.56221191 163.86783203 37.05801758 164.94726562 37.56884766 C204.57661911 56.4204348 240.85023793 81.24147036 273.26074219 110.80078125 C274.61500803 112.02235853 275.97527241 113.23804939 277.36743164 114.41625977 C283.74345212 119.84668755 289.6196043 125.76229546 295.52709961 131.69067383 C297.33108179 133.50001558 299.14034759 135.30394944 300.95019531 137.10742188 C306.76964552 142.92316689 312.48224409 148.7574683 317.77246094 155.06640625 C318.67286878 156.11122364 319.57388344 157.15551848 320.47558594 158.19921875 C347.10655895 189.48652753 370.16020976 223.37759145 389.47363281 259.640625 C390.60345729 261.75076334 391.75126025 263.84878714 392.91308594 265.94140625 C425.23557232 324.80512129 441.32855455 391.76578412 448.77246094 458.06640625 C448.85709595 458.81611694 448.94173096 459.56582764 449.02893066 460.33825684 C451.55349714 483.09161004 452.05353148 505.84493932 452.08208847 528.71810532 C452.08490395 530.77477609 452.09042182 532.83142747 452.09609985 534.88809204 C452.13015256 558.70877832 450.98747497 582.41417364 448.08496094 606.06640625 C448.00420319 606.72809814 447.92344543 607.38979004 447.84024048 608.0715332 C444.65451666 633.79249371 439.56845942 659.33764112 431.77246094 684.06640625 C431.37124023 685.36239746 431.37124023 685.36239746 430.96191406 686.68457031 C426.54251241 700.76938707 420.37598109 713.88448121 413.77246094 727.06640625 C413.11246094 727.06640625 412.45246094 727.06640625 411.77246094 727.06640625 C411.77912277 726.41527863 411.78578461 725.764151 411.79264832 725.09329224 C412.3761234 679.98580783 412.3761234 679.98580783 408.77246094 635.06640625 C408.57166296 633.47739075 408.37098452 631.88836015 408.17041016 630.29931641 C404.97199542 605.28519716 400.48270609 580.62571994 394.77246094 556.06640625 C394.52106354 554.97897125 394.52106354 554.97897125 394.2645874 553.86956787 C386.05026235 518.47042755 374.95590014 483.5326051 360.77246094 450.06640625 C360.0737085 448.41511719 360.0737085 448.41511719 359.36083984 446.73046875 C348.2077219 420.59966011 335.5527124 395.33489211 320.77246094 371.06640625 C319.99539795 369.78515869 319.99539795 369.78515869 319.20263672 368.47802734 C304.80173363 344.8527745 288.10777777 322.19706067 269.32714844 301.8671875 C267.36429163 299.71524815 265.45592732 297.53961817 263.55761719 295.33203125 C259.35563948 290.51575254 254.86371236 286.01107506 250.33496094 281.50390625 C249.12356445 280.28670898 249.12356445 280.28670898 247.88769531 279.04492188 C243.01243321 274.17751677 238.02728034 269.5205545 232.77246094 265.06640625 C232.13671143 264.52395264 231.50096191 263.98149902 230.84594727 263.42260742 C155.3052992 199.38078741 58.26408506 168.89828544 -40.22753906 171.06640625 C-41.14519043 171.08429199 -42.0628418 171.10217773 -43.00830078 171.12060547 C-140.58414465 173.25434699 -228.9509686 215.99713951 -297.54003906 284.25390625 C-298.19786377 284.90705811 -298.85568848 285.56020996 -299.53344727 286.2331543 C-325.16121034 311.94510206 -345.09833973 342.71344285 -361.22753906 375.06640625 C-361.6195752 375.84790039 -362.01161133 376.62939453 -362.41552734 377.43457031 C-367.85611365 388.35448319 -372.18623091 399.56130709 -376.22753906 411.06640625 C-376.88753906 410.73640625 -377.54753906 410.40640625 -378.22753906 410.06640625 C-379.32296173 352.73928659 -365.71363807 297.64584224 -341.22753906 246.06640625 C-340.80118164 245.16003418 -340.37482422 244.25366211 -339.93554688 243.31982422 C-325.36468541 212.54306806 -306.27422778 183.03079923 -284.22753906 157.06640625 C-283.33372596 155.9991867 -282.44052791 154.93145182 -281.54785156 153.86328125 C-275.91161691 147.1369228 -270.16148827 140.53300916 -264.22753906 134.06640625 C-263.73979004 133.52822266 -263.25204102 132.99003906 -262.74951172 132.43554688 C-249.25842646 117.56192458 -234.70325365 103.8580925 -219.22753906 91.06640625 C-218.64327148 90.58252441 -218.05900391 90.09864258 -217.45703125 89.60009766 C-188.80788826 65.99525575 -157.37772401 46.66207429 -124.22753906 30.06640625 C-123.4233252 29.66180176 -122.61911133 29.25719727 -121.79052734 28.84033203 C-84.14158956 10.17110828 -41.82332701 1.24681554 0 0 Z " fill="#3C75BE" transform="translate(742.2275390625,79.93359375)"/>
<path d="M0 0 C0.68739258 0.21430664 1.37478516 0.42861328 2.08300781 0.64941406 C17.78182511 5.71045934 30.33634181 13.37390593 42 25 C42.60457031 25.60199219 43.20914062 26.20398438 43.83203125 26.82421875 C44.41017578 27.40623047 44.41017578 27.40623047 45 28 C48.17127845 26.62781221 50.68645535 24.73966807 53.36328125 22.57275391 C73.29562881 6.46394438 95.06560003 3.67441117 120 5 C137.76480458 6.89569422 155.59702091 15.17031292 168 28 C171.08044993 26.61652359 173.28546905 24.98399475 175.75 22.6875 C186.8249241 12.89279649 199.04288356 9.01461344 213.7734375 9.61328125 C223.50764792 10.31746763 232.10483888 13.315484 240 19 C239.34 19.33 238.68 19.66 238 20 C236.15910166 19.29969036 234.35075245 18.51302616 232.5625 17.6875 C220.35752436 12.47752824 207.95445516 11.41994436 195.1875 15.6875 C187.41336416 18.84966685 179.77951314 23.85926729 174 30 C173.67 30.99 173.34 31.98 173 33 C174.62765926 35.53424157 174.62765926 35.53424157 176.9375 38.25 C201.15573151 69.17685668 212.55782237 118.6509148 208.765625 157.39453125 C206.64571956 173.76801141 201.52670726 190.55167032 188.3359375 201.37890625 C181.14802468 206.36717351 173.73771907 208.57296518 165 208 C154.0436348 205.85596834 145.42312719 200.10972367 139 191 C123.04343237 165.3007204 126.32094106 129.87113487 132.8125 101.7265625 C138.22621123 79.7516502 145.90881967 58.04737922 160 40 C157.01231097 32.57948973 147.67559359 28.4309121 140.77734375 25.12890625 C122.02367663 17.50610766 98.90645202 15.67515997 79.93359375 23.62890625 C70.78809927 27.77907155 63.36235017 33.19540363 56 40 C58.44418286 44.38699489 61.02098666 48.61384989 63.8046875 52.79248047 C84.51571998 83.98335388 97.51858164 119.99547896 103 157 C103.14808105 157.98129883 103.29616211 158.96259766 103.44873047 159.97363281 C107.05170851 184.81828008 108.95509888 212.37074261 103 237 C102.83371094 237.71317383 102.66742187 238.42634766 102.49609375 239.16113281 C97.29161588 260.77899183 86.28323603 281.55349169 66.9140625 293.42578125 C53.98185939 300.41194459 40.09196265 302.05878966 25.90234375 298.03125 C7.17477699 291.37704055 -5.5203759 276.56301582 -14.1484375 259.171875 C-17.73505298 251.43253236 -19.97641592 243.26337864 -22 235 C-22.17934082 234.29053223 -22.35868164 233.58106445 -22.54345703 232.85009766 C-28.29543732 208.87684914 -26.67129643 179.99443099 -22 156 C-21.70198486 154.46158447 -21.70198486 154.46158447 -21.39794922 152.89208984 C-13.22028791 112.05278803 4.16008073 75.7776822 31 44 C25.35924867 31.5018647 10.9633853 25.25473233 -1.1875 20.625 C-22.16829385 13.08633943 -44.87986986 13.76879908 -65.1875 23.0625 C-74.3985868 27.94764683 -82.70407417 34.65563897 -89 43 C-88.38253906 43.88558594 -87.76507812 44.77117188 -87.12890625 45.68359375 C-65.60222938 76.97097324 -54.04413216 112.71744512 -48 150 C-47.86722656 150.80614746 -47.73445312 151.61229492 -47.59765625 152.44287109 C-43.4583825 178.93538584 -42.746131 210.60537463 -55 235 C-55.36738281 235.78246094 -55.73476563 236.56492187 -56.11328125 237.37109375 C-62.28108269 249.60072066 -73.23264589 260.02616109 -86 265 C-98.35330381 269.05224654 -111.58844152 268.82023057 -123.56640625 263.38671875 C-141.75632452 253.02167704 -152.37327626 236.84272653 -158 217 C-170.21831255 171.52619965 -155.11257175 117.04907378 -135 76 C-134.45690186 74.8850415 -134.45690186 74.8850415 -133.90283203 73.74755859 C-129.47355549 64.75961092 -124.49308673 56.39394821 -118.62939453 48.26269531 C-116.24252465 44.93859102 -114.31110339 41.92581814 -113 38 C-126.0467819 25.5084003 -138.66034118 18.32619361 -156.99194336 18.52734375 C-163.86135294 18.779709 -169.73564898 20.09611716 -176 23 C-176.88429688 23.38929688 -177.76859375 23.77859375 -178.6796875 24.1796875 C-184.61079498 27.08507058 -189.59749103 30.89426999 -194.625 35.125 C-195.24165527 35.63998047 -195.85831055 36.15496094 -196.49365234 36.68554688 C-200.50296895 40.14364961 -200.50296895 40.14364961 -202 45 C-200.55279076 48.06253185 -200.55279076 48.06253185 -198.4375 51.3125 C-194.04941195 58.59553396 -190.87183852 66.01028806 -188 74 C-187.61972656 75.05703125 -187.23945313 76.1140625 -186.84765625 77.203125 C-182.1612994 91.27987992 -180.72683935 104.97952233 -180.625 119.75 C-180.61114258 120.94496094 -180.59728516 122.13992188 -180.58300781 123.37109375 C-180.63882072 134.05192127 -181.82049332 145.0207077 -186.9375 154.5625 C-187.42089844 155.49191406 -187.90429688 156.42132812 -188.40234375 157.37890625 C-193.63101379 165.95699329 -201.16482977 172.04120744 -211.015625 174.50390625 C-218.48743277 175.78056405 -225.9197017 174.28370184 -232.51953125 170.58984375 C-243.22677428 162.87406214 -247.79814554 152.43081902 -250.4609375 139.81640625 C-250.75700971 137.89193688 -250.87662234 135.94319815 -251 134 C-251.0515625 133.20335937 -251.103125 132.40671875 -251.15625 131.5859375 C-251.69266869 115.71688462 -248.44437814 99.83348536 -243 85 C-242.63132812 83.99195313 -242.26265625 82.98390625 -241.8828125 81.9453125 C-235.6811757 66.16321609 -227.0838813 50.0838813 -215 38 C-215.64234859 31.26930387 -223.10676148 25.46702556 -228.0390625 21.3828125 C-237.62814166 14.62079253 -246.42487451 13.13618466 -258 14 C-269.17848873 16.43520883 -278.68086409 23.42034283 -287 31 C-282.64295121 20.97434182 -271.5418635 16.0258212 -262 12 C-251.89028905 8.26865558 -241.50994451 10.05292386 -231.88671875 14.41796875 C-224.50501353 18.4634229 -217.34140666 24.4558925 -212 31 C-212 31.66 -212 32.32 -212 33 C-211.58492188 32.62230469 -211.16984375 32.24460937 -210.7421875 31.85546875 C-192.73859087 15.77275795 -175.20885723 3.67617081 -150 4 C-132.1322229 5.50075203 -115.44560293 14.0976777 -103 27 C-99.34480273 25.48664909 -97.28020051 23.33284663 -94.625 20.4375 C-70.56345559 -4.08472199 -32.03812168 -10.05687814 0 0 Z M164 42 C139.12535061 70.22169701 133.39136608 117.00681597 135 153 C135.9562556 167.51649131 139.92515291 182.83487231 151 192.9375 C156.45335096 197.32703439 161.82239919 200.20325949 169 200 C177.60839789 198.48643554 184.038598 195.0765363 189.125 187.9375 C204.49272516 163.16012495 200.01649535 133.08246223 193.90234375 106.046875 C188.49983168 83.48385444 180.18833244 59.9392804 165 42 C164.67 42 164.34 42 164 42 Z M-207 47 C-228.30708062 68.42611459 -240.52039867 100.12767075 -241.3125 130.0625 C-241.08903111 141.78804393 -238.79914682 152.01198799 -230.453125 160.58984375 C-225.37764638 165.10283376 -220.90753825 166.43991436 -214.26171875 166.2421875 C-206.33238616 165.39310525 -200.54112726 160.09384289 -195.5234375 154.29296875 C-189.18225298 145.36473656 -187.35332306 132.69186313 -187 122 C-186.96003906 121.0203125 -186.92007813 120.040625 -186.87890625 119.03125 C-186.36019396 94.37716006 -192.41941776 69.29604584 -205 48 C-205.66 47.67 -206.32 47.34 -207 47 Z M-100 54 C-130.48354971 94.05851084 -148.74400895 153.34739165 -142.50390625 203.76171875 C-141.22723868 211.98080659 -138.7150403 219.5699194 -135 227 C-134.55785156 227.88429688 -134.11570312 228.76859375 -133.66015625 229.6796875 C-128.46960253 239.14058597 -120.53829186 246.37283327 -110.12109375 249.578125 C-101.60502595 251.27192854 -93.53520856 250.3094763 -86 246 C-72.86680378 236.79961209 -66.97801066 223.5409664 -63.578125 208.30078125 C-54.73374555 157.80415532 -70.06134397 98.58151731 -97.65234375 55.84375 C-98.09707031 55.2353125 -98.54179688 54.626875 -99 54 C-99.33 54 -99.66 54 -100 54 Z M41 55 C5.33428601 97.90923424 -12.58817973 155.14616481 -8.5390625 210.8125 C-6.44953094 233.28130898 -0.00410144 257.19820876 17 273 C25.16522998 279.66780026 33.38969207 282.6657686 43.94921875 282.34375 C54.21152908 281.18743334 62.33241365 276.29574751 69.08984375 268.62890625 C91.39257985 239.8194218 89.68010582 201.12016474 85.62548828 166.83300781 C80.52659081 128.69943524 67.68667586 86.30606728 43 56 C42.34 55.67 41.68 55.34 41 55 Z " fill="#97C632" transform="translate(669,519)"/>
<path d="M0 0 C16.17 0 32.34 0 49 0 C50.23711542 6.18557711 51.39972915 12.24810332 52.23681641 18.47900391 C52.34439774 19.26074982 52.45197906 20.04249573 52.56282043 20.84793091 C52.91198272 23.39041875 53.25681649 25.93347243 53.6015625 28.4765625 C53.84505742 30.25592677 54.08882613 32.03525359 54.33285522 33.81454468 C54.9701325 38.46652955 55.60372199 43.11900926 56.23651123 47.77160645 C56.88458844 52.5316394 57.53619848 57.29118859 58.1875 62.05078125 C59.46176635 71.36672079 60.73213229 80.68318762 62 90 C64.99565893 71.0962963 67.6566951 52.1584892 70.1875 33.1875 C70.71960474 29.20500021 71.25291187 25.22266604 71.78791809 21.24055481 C72.11676813 18.79227675 72.44406768 16.34378977 72.76957703 13.89506531 C72.91675674 12.79813858 73.06393646 11.70121185 73.21557617 10.57104492 C73.34340988 9.61244064 73.47124359 8.65383636 73.60295105 7.66618347 C73.98554941 5.09703573 74.49059229 2.54703856 75 0 C91.5 0 108 0 125 0 C125 52.8 125 105.6 125 160 C115.1 160 105.2 160 95 160 C94.67 127.33 94.34 94.66 94 61 C88.72 93.67 83.44 126.34 78 160 C68.1 160 58.2 160 48 160 C45.29673774 146.73226452 42.80156737 133.45960398 40.546875 120.109375 C40.27321093 118.50142028 39.99928432 116.89351022 39.72509766 115.28564453 C38.73024676 109.44096527 37.74040115 103.59543493 36.75 97.75 C34.5225 84.6325 32.295 71.515 30 58 C29.67 91.66 29.34 125.32 29 160 C19.43 160 9.86 160 0 160 C0 107.2 0 54.4 0 0 Z " fill="#0C496F" transform="translate(582,1166)"/>
<path d="M0 0 C1.05550049 0.01244751 1.05550049 0.01244751 2.13232422 0.02514648 C8.84402233 0.24378631 13.15721303 1.50077053 17.8671875 6.26171875 C19.34503227 7.94046868 20.73080576 9.6417305 22.0625 11.4375 C22.784375 10.695 23.50625 9.9525 24.25 9.1875 C31.80464891 1.80073218 37.26316417 0.04170921 47.68139648 0.14868164 C55.91830454 0.34608417 60.5167237 1.52510374 66.375 7.5625 C69.96700031 11.88698665 71.85742076 15.97978574 73.0625 21.4375 C73.23476829 22.20655261 73.40703657 22.97560522 73.58452511 23.76796246 C74.04591504 26.34487135 74.18568808 28.67691941 74.18275452 31.29072571 C74.18481651 32.71461357 74.18481651 32.71461357 74.18692017 34.16726685 C74.18332489 35.19657318 74.17972961 36.22587952 74.17602539 37.28637695 C74.17617142 38.37950699 74.17631744 39.47263702 74.1764679 40.59889221 C74.17577188 44.20787549 74.16799396 47.816807 74.16015625 51.42578125 C74.15829097 53.92970247 74.15686758 56.43362406 74.15586853 58.93754578 C74.15244201 64.85185416 74.14456247 70.76614598 74.13451904 76.68044585 C74.12223246 84.07667414 74.11687139 91.47290474 74.11132812 98.86914062 C74.10060611 112.05860501 74.0830163 125.24804721 74.0625 138.4375 C63.1725 138.4375 52.2825 138.4375 41.0625 138.4375 C41.032771 133.61475464 41.032771 133.61475464 41.00244141 128.69458008 C40.93556594 118.07743524 40.85792589 107.46038884 40.77497292 96.84335804 C40.72500483 90.40560376 40.67867464 83.96786593 40.640625 77.5300293 C40.60377895 71.31838822 40.5574205 65.1068846 40.50443649 58.89536095 C40.485889 56.52430314 40.47078236 54.15321587 40.45915604 51.78211403 C40.44229998 48.46373003 40.41326578 45.1456611 40.38134766 41.82739258 C40.37918747 40.84483994 40.37702728 39.86228729 40.37480164 38.84996033 C40.33855345 32.4017843 40.33855345 32.4017843 38.0625 26.4375 C36.27578929 25.26137805 36.27578929 25.26137805 34.0625 25.4375 C31.29454449 26.24671873 31.29454449 26.24671873 29.0625 28.4375 C27.07399226 34.58171413 26.75865003 40.28682891 26.74365234 46.70898438 C26.73360672 47.70501678 26.7235611 48.70104919 26.71321106 49.7272644 C26.68250273 52.99525413 26.66537827 56.26316239 26.6484375 59.53125 C26.62971593 61.80668838 26.61014178 64.0821199 26.5897522 66.35754395 C26.53852964 72.32836854 26.49885104 78.29921562 26.46160889 84.2701416 C26.42150729 90.37025469 26.37044305 96.47027504 26.3203125 102.5703125 C26.22367009 114.52598285 26.14024183 126.4816918 26.0625 138.4375 C15.1725 138.4375 4.2825 138.4375 -6.9375 138.4375 C-6.95731934 135.18680664 -6.97713867 131.93611328 -6.99755859 128.58691406 C-7.06440418 117.85800383 -7.14204455 107.1291914 -7.22502708 96.40039444 C-7.27501653 89.89423005 -7.32134645 83.38808211 -7.359375 76.88183594 C-7.39619416 70.6053614 -7.44254515 64.32902359 -7.49556351 58.05266571 C-7.51412534 55.65566145 -7.52922664 53.25862787 -7.54084396 50.8615799 C-7.55767558 47.50946488 -7.58670367 44.15766426 -7.61865234 40.80566406 C-7.62081253 39.81016541 -7.62297272 38.81466675 -7.62519836 37.78900146 C-7.63636185 36.87477417 -7.64752533 35.96054688 -7.6590271 35.01861572 C-7.66455786 34.22587376 -7.67008862 33.43313179 -7.67578697 32.61636734 C-7.97169743 30.15279247 -8.63075581 28.5386458 -9.9375 26.4375 C-12.35392233 25.30983625 -13.50628202 25.31067118 -16.0625 26.0625 C-18.63191154 27.94673513 -19.0709568 29.3712702 -19.9375 32.4375 C-20.84341563 38.43373386 -21.10353932 44.28356248 -21.14282227 50.34179688 C-21.15272186 51.298815 -21.16262146 52.25583313 -21.17282104 53.24185181 C-21.20420685 56.37996006 -21.22910211 59.51808341 -21.25390625 62.65625 C-21.27449561 64.84200415 -21.29549258 67.02775449 -21.31687927 69.21350098 C-21.37189534 74.94760036 -21.42139434 80.68173446 -21.46972656 86.41589355 C-21.52009161 92.27468937 -21.57569913 98.13343521 -21.63085938 103.9921875 C-21.73819041 115.47391709 -21.83920549 126.95568949 -21.9375 138.4375 C-32.8275 138.4375 -43.7175 138.4375 -54.9375 138.4375 C-54.9375 93.2275 -54.9375 48.0175 -54.9375 1.4375 C-44.0475 1.4375 -33.1575 1.4375 -21.9375 1.4375 C-21.4425 5.8925 -21.4425 5.8925 -20.9375 10.4375 C-20.091875 9.344375 -19.24625 8.25125 -18.375 7.125 C-13.74339635 1.13780503 -7.24302076 -0.11016331 0 0 Z " fill="#0D4A70" transform="translate(995.9375,1187.5625)"/>
<path d="M0 0 C1.05550049 0.01244751 1.05550049 0.01244751 2.13232422 0.02514648 C8.84402233 0.24378631 13.15721303 1.50077053 17.8671875 6.26171875 C19.34503227 7.94046868 20.73080576 9.6417305 22.0625 11.4375 C22.784375 10.695 23.50625 9.9525 24.25 9.1875 C31.80464891 1.80073218 37.26316417 0.04170921 47.68139648 0.14868164 C55.91830454 0.34608417 60.5167237 1.52510374 66.375 7.5625 C69.95864407 11.88395314 71.90752976 15.96809546 73.0625 21.4375 C73.23490707 22.24945831 73.40731415 23.06141663 73.58494568 23.89797974 C74.2347643 28.71428249 74.19319726 33.45373219 74.17602539 38.30810547 C74.17617142 39.39162796 74.17631744 40.47515045 74.1764679 41.59150696 C74.17577284 45.16258771 74.16799947 48.73361589 74.16015625 52.3046875 C74.15829063 54.78475923 74.1568674 57.26483133 74.15586853 59.74490356 C74.15205474 66.26490297 74.14223414 72.78488002 74.13116455 79.30487061 C74.12038405 85.96105528 74.11636567 92.61724647 74.11132812 99.2734375 C74.10061087 112.32813639 74.08302326 125.38281284 74.0625 138.4375 C63.1725 138.4375 52.2825 138.4375 41.0625 138.4375 C41.032771 133.61475464 41.032771 133.61475464 41.00244141 128.69458008 C40.93556594 118.07743524 40.85792589 107.46038884 40.77497292 96.84335804 C40.72500483 90.40560376 40.67867464 83.96786593 40.640625 77.5300293 C40.60377895 71.31838822 40.5574205 65.1068846 40.50443649 58.89536095 C40.485889 56.52430314 40.47078236 54.15321587 40.45915604 51.78211403 C40.44229998 48.46373003 40.41326578 45.1456611 40.38134766 41.82739258 C40.37918747 40.84483994 40.37702728 39.86228729 40.37480164 38.84996033 C40.33855345 32.4017843 40.33855345 32.4017843 38.0625 26.4375 C36.27578929 25.26137805 36.27578929 25.26137805 34.0625 25.4375 C31.29454449 26.24671873 31.29454449 26.24671873 29.0625 28.4375 C27.07399226 34.58171413 26.75865003 40.28682891 26.74365234 46.70898438 C26.73360672 47.70501678 26.7235611 48.70104919 26.71321106 49.7272644 C26.68250273 52.99525413 26.66537827 56.26316239 26.6484375 59.53125 C26.62971593 61.80668838 26.61014178 64.0821199 26.5897522 66.35754395 C26.53852964 72.32836854 26.49885104 78.29921562 26.46160889 84.2701416 C26.42150729 90.37025469 26.37044305 96.47027504 26.3203125 102.5703125 C26.22367009 114.52598285 26.14024183 126.4816918 26.0625 138.4375 C15.1725 138.4375 4.2825 138.4375 -6.9375 138.4375 C-6.95731934 135.18680664 -6.97713867 131.93611328 -6.99755859 128.58691406 C-7.06440418 117.85800383 -7.14204455 107.1291914 -7.22502708 96.40039444 C-7.27501653 89.89423005 -7.32134645 83.38808211 -7.359375 76.88183594 C-7.39619416 70.6053614 -7.44254515 64.32902359 -7.49556351 58.05266571 C-7.51412534 55.65566145 -7.52922664 53.25862787 -7.54084396 50.8615799 C-7.55767558 47.50946488 -7.58670367 44.15766426 -7.61865234 40.80566406 C-7.62081253 39.81016541 -7.62297272 38.81466675 -7.62519836 37.78900146 C-7.63636185 36.87477417 -7.64752533 35.96054688 -7.6590271 35.01861572 C-7.66455786 34.22587376 -7.67008862 33.43313179 -7.67578697 32.61636734 C-7.97169743 30.15279247 -8.63075581 28.5386458 -9.9375 26.4375 C-12.35392233 25.30983625 -13.50628202 25.31067118 -16.0625 26.0625 C-19.37281613 28.49006516 -19.78834403 31.58958079 -20.47544861 35.49562073 C-21.01808176 40.12496376 -21.11306258 44.66357636 -21.14282227 49.32006836 C-21.15272186 50.28669403 -21.16262146 51.2533197 -21.17282104 52.24923706 C-21.20425765 55.42524822 -21.22912256 58.6012743 -21.25390625 61.77734375 C-21.2744912 63.98694738 -21.29548807 66.19654721 -21.31687927 68.40614319 C-21.3719408 74.20766105 -21.42142001 80.0092135 -21.46972656 85.81079102 C-21.52005814 91.73652202 -21.57568324 97.6622031 -21.63085938 103.58789062 C-21.73824614 115.20438592 -21.83924454 126.82092388 -21.9375 138.4375 C-32.8275 138.4375 -43.7175 138.4375 -54.9375 138.4375 C-54.9375 93.2275 -54.9375 48.0175 -54.9375 1.4375 C-44.0475 1.4375 -33.1575 1.4375 -21.9375 1.4375 C-21.4425 5.8925 -21.4425 5.8925 -20.9375 10.4375 C-20.091875 9.344375 -19.24625 8.25125 -18.375 7.125 C-13.74339635 1.13780503 -7.24302076 -0.11016331 0 0 Z " fill="#90C225" transform="translate(267.9375,1187.5625)"/>
<path d="M0 0 C10.56 0 21.12 0 32 0 C32 18.81 32 37.62 32 57 C36.95 57 41.9 57 47 57 C47 38.19 47 19.38 47 0 C57.56 0 68.12 0 79 0 C79 52.8 79 105.6 79 160 C68.44 160 57.88 160 47 160 C47 135.91 47 111.82 47 87 C42.05 87 37.1 87 32 87 C32 111.09 32 135.18 32 160 C21.44 160 10.88 160 0 160 C0 107.2 0 54.4 0 0 Z " fill="#8EC122" transform="translate(28,1166)"/>
<path d="M0 0 C10.89 0 21.78 0 33 0 C33.029729 4.67071655 33.029729 4.67071655 33.06005859 9.43579102 C33.12699784 19.72962091 33.20463704 30.02335014 33.28752708 40.31706333 C33.33744971 46.55746301 33.3837803 52.7978461 33.421875 59.03833008 C33.45877847 65.06195035 33.50515255 71.0854304 33.55806351 77.10893059 C33.57658048 79.40576655 33.59169837 81.70263254 33.60334396 83.99951363 C33.62025231 87.21930389 33.64929906 90.43877492 33.68115234 93.65844727 C33.68331253 94.60575714 33.68547272 95.55306702 33.68769836 96.52908325 C33.75334774 101.73172937 34.30740295 106.07170446 36 111 C38.64 111 41.28 111 44 111 C45.70390572 108.02421524 46.25440296 105.87478039 46.2784729 102.45684814 C46.28963638 101.551035 46.30079987 100.64522186 46.31230164 99.71195984 C46.31446182 98.72581192 46.31662201 97.739664 46.31884766 96.72363281 C46.33391609 95.15730858 46.33391609 95.15730858 46.34928894 93.55934143 C46.38018378 90.10727489 46.39717378 86.65528614 46.4140625 83.203125 C46.43276906 80.80986865 46.45234208 78.41661893 46.4727478 76.02337646 C46.52412901 69.72369287 46.56372279 63.42398789 46.60089111 57.12420654 C46.64089315 50.6960315 46.69200283 44.26794593 46.7421875 37.83984375 C46.8390178 25.22661902 46.92237351 12.61335755 47 0 C58.22 0 69.44 0 81 0 C81 45.21 81 90.42 81 137 C69.78 137 58.56 137 47 137 C46.505 132.545 46.505 132.545 46 128 C45.55269531 128.55429688 45.10539062 129.10859375 44.64453125 129.6796875 C43.73767578 130.76636719 43.73767578 130.76636719 42.8125 131.875 C42.22082031 132.59429688 41.62914062 133.31359375 41.01953125 134.0546875 C36.22001953 138.67781484 30.46632264 138.4573657 24.16845703 138.42724609 C17.92738778 138.24079682 12.88182799 137.1300636 8 133 C0.27043451 123.86358891 -0.30804965 112.98928502 -0.22705078 101.49169922 C-0.22734283 100.38808548 -0.22763489 99.28447174 -0.22793579 98.14741516 C-0.22655272 94.53309004 -0.21103983 90.9189762 -0.1953125 87.3046875 C-0.19157874 84.78549309 -0.18873348 82.26629722 -0.18673706 79.74710083 C-0.17990505 73.81522569 -0.16417418 67.8834173 -0.14403808 61.95157635 C-0.12159613 55.19211241 -0.1106649 48.43264468 -0.10064721 41.67315269 C-0.07980524 27.78205298 -0.04316258 13.89104736 0 0 Z " fill="#91C226" transform="translate(120,1189)"/>
<path d="M0 0 C1.051875 0.556875 2.10375 1.11375 3.1875 1.6875 C10.8813603 8.01356291 16.21953614 14.44658476 17.26956749 24.60890388 C17.36668672 27.5112543 17.37143565 30.39916224 17.34057617 33.30297852 C17.34123329 34.94354973 17.34123329 34.94354973 17.34190369 36.61726379 C17.33982652 40.20466443 17.3165456 43.79158803 17.29296875 47.37890625 C17.287369 49.8771082 17.28310069 52.37531346 17.28010559 54.8735199 C17.26985162 60.7594356 17.24624753 66.64517734 17.21605712 72.53102201 C17.17910607 79.8963022 17.16309451 87.26160384 17.14648438 94.62695312 C17.11437245 107.75140455 17.06162852 120.87565395 17 134 C6.11 134 -4.78 134 -16 134 C-16.33 130.7 -16.66 127.4 -17 124 C-17.53625 124.9075 -18.0725 125.815 -18.625 126.75 C-21.45874821 131.01574909 -25.16277081 133.38759027 -30 135 C-38.27370773 135.64870973 -45.95452755 135.83247149 -53 131 C-62.3487802 122.06672114 -63.45930675 110.15799196 -64.1875 97.82421875 C-64.44752882 85.55410899 -63.22259044 71.87359612 -54.57519531 62.38647461 C-47.36715079 56.04201013 -38.3413341 53.06379847 -29.375 50.125 C-28.18003906 49.7228125 -26.98507812 49.320625 -25.75390625 48.90625 C-22.83928025 47.92693566 -19.92153047 46.95847712 -17 46 C-16.97285566 43.2915983 -16.95309154 40.58347279 -16.9375 37.875 C-16.92493164 36.73417969 -16.92493164 36.73417969 -16.91210938 35.5703125 C-16.89353491 31.2610356 -17.13882735 27.24483526 -18 23 C-20.97 23 -23.94 23 -27 23 C-29.25585658 27.51171315 -28.61312379 32.97060926 -29 38 C-39.89 38 -50.78 38 -62 38 C-62 24.50098751 -60.97583348 13.13806217 -51.3125 3.25 C-38.36184138 -6.68107501 -14.02542421 -7.6965521 0 0 Z " fill="#0C496F" transform="translate(781,1192)"/>
<path d="M0 0 C1.051875 0.556875 2.10375 1.11375 3.1875 1.6875 C10.8813603 8.01356291 16.21953614 14.44658476 17.26956749 24.60890388 C17.36668672 27.5112543 17.37143565 30.39916224 17.34057617 33.30297852 C17.34123329 34.94354973 17.34123329 34.94354973 17.34190369 36.61726379 C17.33982652 40.20466443 17.3165456 43.79158803 17.29296875 47.37890625 C17.287369 49.8771082 17.28310069 52.37531346 17.28010559 54.8735199 C17.26985162 60.7594356 17.24624753 66.64517734 17.21605712 72.53102201 C17.17910607 79.8963022 17.16309451 87.26160384 17.14648438 94.62695312 C17.11437245 107.75140455 17.06162852 120.87565395 17 134 C6.11 134 -4.78 134 -16 134 C-16.33 130.7 -16.66 127.4 -17 124 C-18.03125 125.258125 -19.0625 126.51625 -20.125 127.8125 C-23.82412318 132.32543028 -27.47750913 134.67175089 -33.33203125 135.43359375 C-42.44558454 135.4438222 -49.01387193 134.7203862 -55.8125 128.375 C-65.11072567 115.48573545 -65.21681413 97.44994447 -63.25 82.3125 C-61.72266728 73.38347792 -58.63379204 65.00961709 -51.01074219 59.58422852 C-44.1255778 55.30004637 -37.05923906 52.64358003 -29.375 50.125 C-28.18003906 49.7228125 -26.98507812 49.320625 -25.75390625 48.90625 C-22.83928025 47.92693566 -19.92153047 46.95847712 -17 46 C-16.97285566 43.2915983 -16.95309154 40.58347279 -16.9375 37.875 C-16.92493164 36.73417969 -16.92493164 36.73417969 -16.91210938 35.5703125 C-16.89353491 31.2610356 -17.13882735 27.24483526 -18 23 C-20.97 23 -23.94 23 -27 23 C-29.25585658 27.51171315 -28.61312379 32.97060926 -29 38 C-39.89 38 -50.78 38 -62 38 C-62 24.50098751 -60.97583348 13.13806217 -51.3125 3.25 C-38.36184138 -6.68107501 -14.02542421 -7.6965521 0 0 Z " fill="#8FC124" transform="translate(416,1192)"/>
<path d="M0 0 C7.74389742 4.59231126 10.65627373 11.67397556 12.83681679 20.0682621 C13.81650121 24.95171511 13.83073294 29.71888151 13.77807617 34.68432617 C13.77873329 36.33996582 13.77873329 36.33996582 13.77940369 38.02905273 C13.77733175 41.63804488 13.75407601 45.24655884 13.73046875 48.85546875 C13.72486713 51.37323249 13.72059971 53.89099951 13.71760559 56.4087677 C13.7073639 62.33356862 13.68377633 68.25821888 13.65355712 74.18294269 C13.61656215 81.59914519 13.60058508 89.01536929 13.58398438 96.43164062 C13.55189844 109.6420292 13.49916675 122.85221636 13.4375 136.0625 C2.5475 136.0625 -8.3425 136.0625 -19.5625 136.0625 C-19.592229 131.23189941 -19.592229 131.23189941 -19.62255859 126.30371094 C-19.68940525 115.6745849 -19.76704561 105.04555758 -19.85002708 94.41654587 C-19.90001576 87.97091584 -19.94634569 81.52530241 -19.984375 75.07958984 C-20.02119513 68.86146922 -20.06754638 62.64348659 -20.12056351 56.4254837 C-20.13912483 54.05080837 -20.15422632 51.67610343 -20.16584396 49.30138397 C-20.18267646 45.98040067 -20.21170476 42.65973462 -20.24365234 39.33886719 C-20.24581253 38.35271927 -20.24797272 37.36657135 -20.25019836 36.35054016 C-20.26136185 35.44472702 -20.27252533 34.53891388 -20.2840271 33.60565186 C-20.28955786 32.82028423 -20.29508862 32.03491661 -20.30078697 31.22574997 C-20.60114263 28.74309035 -21.18987714 27.1512869 -22.5625 25.0625 C-25.47254903 23.98026634 -25.47254903 23.98026634 -28.5625 24.0625 C-32.20930555 26.79306245 -32.45500446 30.03687968 -33.20185471 34.31100082 C-33.76968745 38.64321133 -33.87075047 42.92071554 -33.88134766 47.28564453 C-33.89641609 48.73624016 -33.89641609 48.73624016 -33.91178894 50.21614075 C-33.94239454 53.37585925 -33.95959264 56.53549393 -33.9765625 59.6953125 C-33.99529238 61.90063182 -34.01486712 64.1059441 -34.0352478 66.31124878 C-34.08638273 72.08805175 -34.12610785 77.86487791 -34.16339111 83.64178467 C-34.20354808 89.54770557 -34.25458688 95.45353156 -34.3046875 101.359375 C-34.40122596 112.92702301 -34.48469401 124.49471081 -34.5625 136.0625 C-45.4525 136.0625 -56.3425 136.0625 -67.5625 136.0625 C-67.5625 90.8525 -67.5625 45.6425 -67.5625 -0.9375 C-56.6725 -0.9375 -45.7825 -0.9375 -34.5625 -0.9375 C-34.0675 5.0025 -34.0675 5.0025 -33.5625 11.0625 C-32.716875 9.66 -31.87125 8.2575 -31 6.8125 C-23.80360765 -3.71678374 -11.58375811 -5.05473081 0 0 Z " fill="#90C226" transform="translate(512.5625,1189.9375)"/>
<path d="M0 0 C0.87438721 -0.01409912 1.74877441 -0.02819824 2.6496582 -0.04272461 C12.98640262 0.03382951 22.37897957 2.89147804 30.125 9.90234375 C38.31771556 18.60710403 39.60367678 29.48406151 39.53515625 40.9296875 C39.53414917 41.72963135 39.53314209 42.5295752 39.53210449 43.35375977 C39.52690396 46.31918793 39.51294286 49.28459552 39.5 52.25 C39.479375 58.89125 39.45875 65.5325 39.4375 72.375 C23.5975 72.375 7.7575 72.375 -8.5625 72.375 C-8.43875 77.139375 -8.315 81.90375 -8.1875 86.8125 C-8.15350098 88.2967749 -8.11950195 89.7810498 -8.08447266 91.31030273 C-8.42918494 102.47720331 -8.42918494 102.47720331 -4.5625 112.375 C-1.10428598 112.62503964 -1.10428598 112.62503964 2.4375 112.375 C6.78712223 108.02537777 5.7439796 99.87746262 6 94 C6.144375 90.82375 6.28875 87.6475 6.4375 84.375 C17.3275 84.375 28.2175 84.375 39.4375 84.375 C39.95488564 118.52245246 39.95488564 118.52245246 27.7890625 131.39453125 C16.47069817 140.92677496 1.37513975 140.28590567 -12.5625 139.375 C-21.31039373 137.96201717 -27.83964882 134.14371105 -33.5625 127.375 C-41.77826521 115.51464722 -42.03237263 100.6082146 -41.99609375 86.71484375 C-42.00067184 85.15173622 -42.00598215 83.58863069 -42.01197815 82.02552795 C-42.02083643 78.7740147 -42.01856884 75.52274803 -42.00854492 72.27124023 C-41.99704005 68.14058534 -42.01732687 64.01078351 -42.04646206 59.88024044 C-42.06495468 56.66023009 -42.06450628 53.44041956 -42.05882454 50.22036934 C-42.05867305 48.69879519 -42.06457204 47.17720597 -42.07711601 45.65568352 C-42.16066601 33.86944611 -41.31889838 21.56491587 -33.37890625 12.15234375 C-23.44903699 2.43602007 -13.48914047 0.1594461 0 0 Z " fill="#0E4A70" transform="translate(1240.5625,1187.625)"/>
<path d="M0 0 C11.22 0 22.44 0 34 0 C38.9375 13.875 38.9375 13.875 40.49194336 18.24951172 C40.89550049 19.38146973 41.29905762 20.51342773 41.71484375 21.6796875 C42.12855225 22.84226074 42.54226074 24.00483398 42.96850586 25.20263672 C43.90670798 27.90521111 43.90670798 27.90521111 45 30 C45.29769287 29.12674072 45.59538574 28.25348145 45.90209961 27.35375977 C47.00490624 24.12329653 48.11031797 20.89374982 49.2175293 17.66479492 C49.69677318 16.26541578 50.1749668 14.86567651 50.65209961 13.46557617 C51.33693985 11.45656923 52.02551057 9.4488753 52.71484375 7.44140625 C53.12855225 6.23170166 53.54226074 5.02199707 53.96850586 3.77563477 C55 1 55 1 56 0 C57.85369611 -0.08737645 59.71067541 -0.10698153 61.56640625 -0.09765625 C62.69111328 -0.09443359 63.81582031 -0.09121094 64.97460938 -0.08789062 C66.15861328 -0.07951172 67.34261719 -0.07113281 68.5625 -0.0625 C69.75037109 -0.05798828 70.93824219 -0.05347656 72.16210938 -0.04882812 C75.10812226 -0.03699675 78.05403681 -0.02051287 81 0 C79.48246111 4.57815783 77.96271745 9.15557686 76.44104004 13.73236084 C75.89792233 15.36638551 75.35519637 17.00054044 74.81286621 18.63482666 C71.92834448 27.32391551 69.02313842 36.00292125 65.9765625 44.63671875 C65.74309113 45.30102402 65.50961975 45.96532928 65.26907349 46.64976501 C64.17338357 49.76581054 63.06855966 52.8779918 61.94775391 55.98510742 C61.55765137 57.09088135 61.16754883 58.19665527 60.765625 59.3359375 C60.25177246 60.76752197 60.25177246 60.76752197 59.72753906 62.22802734 C57.9179312 69.12275475 59.88238546 74.30011367 62.25390625 80.76171875 C62.59244125 81.70698929 62.93097626 82.65225983 63.2797699 83.62617493 C64.36515451 86.64989174 65.46366087 89.66865016 66.5625 92.6875 C67.27494235 94.66701062 67.98653877 96.64682592 68.69726562 98.62695312 C71.45927039 106.30559479 74.24182348 113.97615104 77.08935547 121.62353516 C77.41636948 122.50330521 77.74338348 123.38307526 78.08030701 124.289505 C78.69722602 125.94575836 79.3170857 127.60092029 79.94032288 129.25480652 C82 134.77987298 82 134.77987298 82 137 C70.78 137 59.56 137 48 137 C47.14535156 134.55722656 46.29070313 132.11445312 45.41015625 129.59765625 C44.58345406 127.24104914 43.75576519 124.88479081 42.92797852 122.52856445 C42.35174849 120.88667462 41.77655023 119.24442231 41.20239258 117.60180664 C40.37850473 115.24530256 39.55095505 112.89011293 38.72265625 110.53515625 C38.46533218 109.79660904 38.20800812 109.05806183 37.94288635 108.2971344 C36.93375 104.8846229 36.93375 104.8846229 35 102 C31.04 113.55 27.08 125.1 23 137 C14.42 137 5.84 137 -3 137 C-0.55140013 129.61512699 -0.55140013 129.61512699 0.65942383 125.97338867 C1.45780665 123.57209903 2.25559179 121.17062028 3.05136108 118.76846313 C6.12099175 109.50341303 9.23890357 100.26070621 12.50390625 91.0625 C13.06435423 89.47249197 13.62457928 87.88240535 14.18457031 86.29223633 C14.99092847 84.00291199 15.80213553 81.71603631 16.6307373 79.43466187 C17.39892879 77.31907991 18.14829165 75.19762456 18.89453125 73.07421875 C19.32612549 71.87369873 19.75771973 70.67317871 20.20239258 69.4362793 C22.05351015 61.46123189 18.46297329 54.11556166 15.78125 46.6796875 C15.36331177 45.50286407 14.94537354 44.32604065 14.51477051 43.11355591 C13.40838465 40.00019975 12.29675857 36.88878903 11.1819458 33.77844238 C9.61065593 29.39266902 8.04598175 25.00455452 6.48522949 20.61502075 C5.6553493 18.28205756 4.82190055 15.95036 3.98449707 13.62008667 C3.41886047 12.03286301 3.41886047 12.03286301 2.84179688 10.41357422 C2.50950073 9.48648651 2.17720459 8.5593988 1.83483887 7.60421753 C1 5 1 5 0 0 Z " fill="#0F4B71" transform="translate(807,1189)"/>
<path d="M0 0 C22.11 0 44.22 0 67 0 C67 26.41574807 67 26.41574807 63.80859375 34.26953125 C63.47150391 35.18973557 63.13441406 36.10993988 62.78710938 37.05802917 C61.70449857 39.990249 60.57217323 42.90008685 59.4375 45.8125 C58.66623439 47.87424509 57.8988026 49.937428 57.13500977 52.00195312 C55.56614465 56.23119582 53.97945383 60.45306079 52.37890625 64.67041016 C48.92882183 73.79811361 45.68572465 82.99923268 42.43069458 92.19784546 C40.85787934 96.63531567 39.27072661 101.06763518 37.68359375 105.5 C36.79800781 107.975 35.91242188 110.45 35 113 C45.56 113 56.12 113 67 113 C67 120.92 67 128.84 67 137 C44.23 137 21.46 137 -2 137 C-2 114.02676342 -2 114.02676342 1.41015625 105.734375 C1.76944214 104.78230667 2.12872803 103.83023834 2.49890137 102.84931946 C3.65627867 99.80344076 4.85834919 96.77765035 6.0625 93.75 C6.88136614 91.62028393 7.69699485 89.4893205 8.50952148 87.35717773 C10.16607174 83.0225593 11.8395016 78.69508514 13.52734375 74.37255859 C15.90685996 68.26470764 18.21617316 62.13246788 20.5 55.98828125 C20.84784042 55.05299591 21.19568085 54.11771057 21.55406189 53.15408325 C22.23015093 51.3354998 22.90605436 49.51684733 23.58175659 47.69812012 C25.13040179 43.53633794 26.68981614 39.37865519 28.25390625 35.22265625 C28.51973511 34.51361649 28.78556396 33.80457672 29.05944824 33.0740509 C30.88307943 28.23384114 30.88307943 28.23384114 32 26 C21.44 26 10.88 26 0 26 C0 17.42 0 8.84 0 0 Z " fill="#0D4A70" transform="translate(1126,1189)"/>
<path d="M0 0 C0 8.91 0 17.82 0 27 C-9.25 28.9375 -9.25 28.9375 -12.14550781 29.54272461 C-12.90702148 29.70264893 -13.66853516 29.86257324 -14.453125 30.02734375 C-15.61569824 30.27085571 -15.61569824 30.27085571 -16.80175781 30.51928711 C-18.87693643 30.97308839 -20.93920589 31.48480147 -23 32 C-23 66.98 -23 101.96 -23 138 C-34.22 138 -45.44 138 -57 138 C-57 92.79 -57 47.58 -57 1 C-45.78 1 -34.56 1 -23 1 C-22.505 5.95 -22.505 5.95 -22 11 C-21.175 9.9275 -20.35 8.855 -19.5 7.75 C-13.59068695 0.91128794 -9.08298837 0 0 0 Z " fill="#104C71" transform="translate(1348,1188)"/>
<path d="M0 0 C10.89 0 21.78 0 33 0 C33 45.21 33 90.42 33 137 C22.11 137 11.22 137 0 137 C0 91.79 0 46.58 0 0 Z " fill="#0C496F" transform="translate(1082,1189)"/>
<path d="M0 0 C10.89 0 21.78 0 33 0 C33 45.21 33 90.42 33 137 C22.11 137 11.22 137 0 137 C0 91.79 0 46.58 0 0 Z " fill="#0C496F" transform="translate(896,1189)"/>
<path d="M0 0 C6.82068003 5.61628486 12.43226935 12.88939764 14.1015625 21.73046875 C15.12915923 34.76626731 13.54981711 44.77137765 4.9140625 55.16796875 C-2.36705979 62.70308367 -11.65980385 66.51781394 -22.0859375 67.10546875 C-32.87779277 66.80673227 -42.02400981 62.55012323 -49.57421875 55.0703125 C-57.63211573 46.29260338 -59.38830154 37.38194224 -59.17578125 25.78515625 C-58.70004728 15.55569253 -52.92117251 7.27235302 -45.5859375 0.48046875 C-32.2231841 -10.39343479 -13.69776791 -9.80140637 0 0 Z " fill="#8FC224" transform="translate(747.8984375,434.26953125)"/>
<path d="M0 0 C6.78459294 4.18360295 11.13103705 9.50792975 13.54296875 17.140625 C15.25052084 26.2708015 13.64573345 33.42157408 8.67578125 41.125 C4.81685138 46.21177119 0.02312814 49.33783504 -6.07421875 51.1875 C-14.35197505 52.25862851 -21.97888206 51.85708056 -29.07421875 47.1875 C-31.88671875 44.75 -31.88671875 44.75 -34.07421875 42.1875 C-34.77546875 41.465625 -35.47671875 40.74375 -36.19921875 40 C-40.59473633 33.40672363 -41.68261684 26.57658046 -40.640625 18.7890625 C-38.8492216 10.56096138 -34.0503135 4.48866658 -27.078125 -0.13671875 C-18.61776291 -4.5609448 -8.41792085 -4.43210458 0 0 Z " fill="#91C328" transform="translate(591.07421875,444.8125)"/>
<path d="M0 0 C5.287971 3.99770607 8.61167726 8.48363829 10 15 C10.91570615 21.6162994 9.53769717 27.56138594 5.55859375 32.953125 C0.76209742 38.25041561 -4.3654779 40.76971319 -11.515625 41.125 C-18.98162038 40.75857078 -24.08988567 37.91011433 -29.3125 32.6875 C-33.10671571 26.64486017 -34.66093542 21.62654791 -33.63671875 14.45703125 C-31.87937689 7.67563229 -27.64686798 2.91823493 -22 -1 C-14.6813232 -4.34113506 -6.95272711 -3.92133809 0 0 Z " fill="#93C42B" transform="translate(862,463)"/>
<path d="M0 0 C4.82935411 3.48162738 9.24437505 8.0206877 10.6875 13.9375 C11.30968891 20.26308724 10.39612946 24.7087637 6.6875 29.9375 C2.01989203 34.82788017 -1.69308967 37.06771118 -8.5625 37.25 C-14.75328323 37.17649466 -18.21016731 35.88264784 -22.77734375 31.546875 C-26.36725925 27.59276518 -28.27362675 23.91130389 -28.34375 18.546875 C-27.92780291 11.60055859 -26.07276574 7.42173917 -20.8125 2.6875 C-14.27783192 -1.88676766 -7.6451178 -2.4522076 0 0 Z " fill="#93C42B" transform="translate(472.3125,470.0625)"/>
<path d="M0 0 C10.89 0 21.78 0 33 0 C33 8.91 33 17.82 33 27 C22.11 27 11.22 27 0 27 C0 18.09 0 9.18 0 0 Z " fill="#0D4A70" transform="translate(1082,1154)"/>
<path d="M0 0 C10.89 0 21.78 0 33 0 C33 8.91 33 17.82 33 27 C22.11 27 11.22 27 0 27 C0 18.09 0 9.18 0 0 Z " fill="#0D4A70" transform="translate(896,1154)"/>
<path d="M0 0 C5.45786282 1.54319763 10.01814426 4.08974863 14.875 6.9375 C15.70926514 7.42476563 16.54353027 7.91203125 17.40307617 8.4140625 C30.6856783 16.26878133 43.06069234 25.24070075 55 35 C55.8053418 35.65669678 55.8053418 35.65669678 56.62695312 36.32666016 C70.14139457 47.40669584 83.48327945 59.27275208 94.8828125 72.546875 C96.50687341 74.42862824 98.1474446 76.28847712 99.8046875 78.140625 C117.48630488 98.03002374 132.73458863 119.94815335 146 143 C146.38865234 143.67434082 146.77730469 144.34868164 147.17773438 145.04345703 C150.20047741 150.31865471 153.12813556 155.64127135 156 161 C156.43038574 161.80195801 156.86077148 162.60391602 157.30419922 163.43017578 C183.74668592 213.22676085 199.6307293 268.85986446 206.25 324.6875 C206.33326538 325.3874408 206.41653076 326.08738159 206.50231934 326.80853271 C208.48024338 343.67060865 209.20132224 360.40628475 209.1875 377.375 C209.18858765 378.74383331 209.18858765 378.74383331 209.18969727 380.14031982 C209.18838163 395.17963986 208.59704516 410.03619655 207 425 C206.67 425 206.34 425 206 425 C205.8837605 418.90388418 206.04715232 412.882532 206.4921875 406.80078125 C207.12015128 397.43074345 207.20061109 388.07582298 207.1875 378.6875 C207.18656342 377.81227692 207.18562683 376.93705383 207.18466187 376.03530884 C206.97442956 284.80380988 179.25504982 192.03671713 127 117 C126.39575195 116.12770752 126.39575195 116.12770752 125.77929688 115.23779297 C104.80727209 85.06765748 80.05633527 56.46925389 50.65722656 34.26318359 C49.0329841 33.02514139 47.43215785 31.76217832 45.8359375 30.48828125 C33.07110471 20.3553523 19.24551223 11.8790551 5 4 C4.67 4.66 4.34 5.32 4 6 C2.62437146 4.71034824 1.29233607 3.37310707 0 2 C0 1.34 0 0.68 0 0 Z " fill="#ABF1FD" transform="translate(900,365)"/>
<path d="M0 0 C0.07425639 5.88986463 0.12865268 11.77945566 0.16479492 17.66967773 C0.17986465 19.67265572 0.2003241 21.6756008 0.22631836 23.6784668 C0.26278127 26.56046681 0.27974461 29.44202984 0.29296875 32.32421875 C0.30845261 33.21711105 0.32393646 34.11000336 0.33988953 35.029953 C0.34119487 39.87181072 0.1202209 43.04410254 -3 47 C-3.495 47.495 -3.495 47.495 -4 48 C-7.375 47.875 -7.375 47.875 -11 47 C-15.27397726 41.65031405 -14.48722114 35.67270588 -14.44604492 29.13500977 C-14.43753675 27.0714125 -14.46631856 25.01058975 -14.49804688 22.94726562 C-14.49740234 21.63564453 -14.49675781 20.32402344 -14.49609375 18.97265625 C-14.49794678 17.77906494 -14.4997998 16.58547363 -14.50170898 15.35571289 C-13.73634725 10.23654161 -11.28548105 7.15693294 -7.5 3.75 C-2.14285714 0 -2.14285714 0 0 0 Z " fill="#FBFCFC" transform="translate(765,1254)"/>
<path d="M0 0 C0.07425639 5.88986463 0.12865268 11.77945566 0.16479492 17.66967773 C0.17986465 19.67265572 0.2003241 21.6756008 0.22631836 23.6784668 C0.26278127 26.56046681 0.27974461 29.44202984 0.29296875 32.32421875 C0.30845261 33.21711105 0.32393646 34.11000336 0.33988953 35.029953 C0.34119487 39.87181072 0.1202209 43.04410254 -3 47 C-3.495 47.495 -3.495 47.495 -4 48 C-7.375 47.875 -7.375 47.875 -11 47 C-15.27397726 41.65031405 -14.48722114 35.67270588 -14.44604492 29.13500977 C-14.43753675 27.0714125 -14.46631856 25.01058975 -14.49804688 22.94726562 C-14.49740234 21.63564453 -14.49675781 20.32402344 -14.49609375 18.97265625 C-14.49794678 17.77906494 -14.4997998 16.58547363 -14.50170898 15.35571289 C-13.73634725 10.23654161 -11.28548105 7.15693294 -7.5 3.75 C-2.14285714 0 -2.14285714 0 0 0 Z " fill="#FDFEFB" transform="translate(400,1254)"/>
<path d="M0 0 C2.78945211 2.78945211 2.95294886 4.86065409 3.11352539 8.74902344 C3.10828857 9.77543945 3.10305176 10.80185547 3.09765625 11.859375 C3.09443359 12.97441406 3.09121094 14.08945313 3.08789062 15.23828125 C3.07951172 16.39714844 3.07113281 17.55601563 3.0625 18.75 C3.05798828 19.92433594 3.05347656 21.09867188 3.04882812 22.30859375 C3.03705106 25.20575095 3.01911588 28.10288193 3 31 C-1.95 31 -6.9 31 -12 31 C-12.08093399 26.77044947 -12.1404757 22.54244789 -12.1875 18.3125 C-12.21263672 17.11431641 -12.23777344 15.91613281 -12.26367188 14.68164062 C-12.27333984 13.52470703 -12.28300781 12.36777344 -12.29296875 11.17578125 C-12.3086792 10.11270752 -12.32438965 9.04963379 -12.34057617 7.9543457 C-11.95103225 4.57522669 -11.00795454 2.72009036 -9 0 C-5.88135455 -1.55932272 -3.33704665 -0.65549131 0 0 Z " fill="#FCFDFD" transform="translate(1244,1213)"/>
<path d="M0 0 C7.25126559 6.58979041 7.25126559 6.58979041 9.26953125 9.0625 C9.26953125 9.7225 9.26953125 10.3825 9.26953125 11.0625 C10.25953125 10.7325 11.24953125 10.4025 12.26953125 10.0625 C12.26953125 10.7225 12.26953125 11.3825 12.26953125 12.0625 C10.94953125 12.0625 9.62953125 12.0625 8.26953125 12.0625 C7.93953125 11.7325 7.60953125 11.4025 7.26953125 11.0625 C6.93953125 11.7225 6.60953125 12.3825 6.26953125 13.0625 C5.71265625 12.41023437 5.15578125 11.75796875 4.58203125 11.0859375 C-3.51602889 1.81146997 -12.91970694 -7.17513507 -25.796875 -8.17578125 C-42.08853983 -8.52163782 -53.8788207 -1.73566822 -65.73046875 9.0625 C-61.37341996 -0.96315818 -50.27233225 -5.9116788 -40.73046875 -9.9375 C-26.13432239 -15.32472121 -11.31098002 -9.64813804 0 0 Z " fill="#C6E090" transform="translate(447.73046875,540.9375)"/>
<path d="M0 0 C1.03125 0.7425 2.0625 1.485 3.125 2.25 C2.465 2.58 1.805 2.91 1.125 3.25 C-0.71589834 2.54969036 -2.52424755 1.76302616 -4.3125 0.9375 C-16.51747564 -4.27247176 -28.92054484 -5.33005564 -41.6875 -1.0625 C-51.05617299 2.74825245 -58.82922768 9.09875205 -65.875 16.25 C-65.545 14.93 -65.215 13.61 -64.875 12.25 C-65.535 11.92 -66.195 11.59 -66.875 11.25 C-48.3254927 -6.19718002 -23.51731075 -14.45635039 0 0 Z " fill="#C1DD86" transform="translate(905.875,535.75)"/>
<path d="M0 0 C1.32 0.66 2.64 1.32 4 2 C1.49447074 4.00800914 -1.01428455 6.01126916 -3.53515625 8 C-4.78619141 8.99 -4.78619141 8.99 -6.0625 10 C-6.89910156 10.66 -7.73570312 11.32 -8.59765625 12 C-10.87032674 13.89204438 -12.94608561 15.87493384 -15 18 C-14.67 16.68 -14.34 15.36 -14 14 C-14.66 13.67 -15.32 13.34 -16 13 C-5.62642369 3.40546697 -5.62642369 3.40546697 0 0 Z " fill="#B8D874" transform="translate(855,534)"/>
<path d="M0 0 C1.63001953 0.15275391 1.63001953 0.15275391 3.29296875 0.30859375 C4.12441406 0.39238281 4.95585937 0.47617187 5.8125 0.5625 C5.8125 0.8925 5.8125 1.2225 5.8125 1.5625 C4.89210938 1.62566406 3.97171875 1.68882812 3.0234375 1.75390625 C-11.8159811 3.18949155 -22.60242559 8.80669858 -33.1875 19.5625 C-33.1875 16.5625 -33.1875 16.5625 -31.4921875 14.546875 C-23.01633316 6.75235943 -11.94393129 -1.15586432 0 0 Z " fill="#E2EFC6" transform="translate(416.1875,530.4375)"/>
<path d="M0 0 C3.53487117 0.59177531 5.37265076 1.91607012 8 4.3125 C8.6909375 4.9415625 9.381875 5.570625 10.09375 6.21875 C10.7228125 6.8065625 11.351875 7.394375 12 8 C12.825 8.763125 13.65 9.52625 14.5 10.3125 C16 12 16 12 16 14 C16.99 13.67 17.98 13.34 19 13 C19 13.66 19 14.32 19 15 C17.68 15 16.36 15 15 15 C14.67 14.67 14.34 14.34 14 14 C13.67 14.66 13.34 15.32 13 16 C12.39671875 15.32453125 11.7934375 14.6490625 11.171875 13.953125 C9.97304688 12.61507812 9.97304688 12.61507812 8.75 11.25 C7.96109375 10.36828125 7.1721875 9.4865625 6.359375 8.578125 C4.85748592 6.93698792 3.30860323 5.3368235 1.703125 3.796875 C0 2 0 2 0 0 Z " fill="#BEDB80" transform="translate(441,538)"/>
<path d="M0 0 C0.33 0.99 0.66 1.98 1 3 C0.67 3.33 0.34 3.66 0 4 C0.66 4.66 1.32 5.32 2 6 C0.02 9.63 -1.96 13.26 -4 17 C-4.66 16.34 -5.32 15.68 -6 15 C-6.99 15.33 -7.98 15.66 -9 16 C-7.56691865 12.04093183 -5.66858051 8.71281819 -3.375 5.1875 C-2.74335937 4.21167969 -2.11171875 3.23585938 -1.4609375 2.23046875 C-0.73777344 1.12638672 -0.73777344 1.12638672 0 0 Z " fill="#B9D976" transform="translate(828,560)"/>
<path d="M0 0 C-5.94 3.465 -5.94 3.465 -12 7 C-12.33 6.34 -12.66 5.68 -13 5 C-12.34 5 -11.68 5 -11 5 C-11 4.34 -11 3.68 -11 3 C-10.34 2.67 -9.68 2.34 -9 2 C-9.75023437 2.144375 -10.50046875 2.28875 -11.2734375 2.4375 C-17.93486552 3.64561793 -24.23371881 4.26945368 -31 4 C-31 3.67 -31 3.34 -31 3 C-26.58525431 2.29976385 -22.16797838 1.61701647 -17.75 0.9375 C-16.49574219 0.73833984 -15.24148438 0.53917969 -13.94921875 0.33398438 C-12.74394531 0.15029297 -11.53867187 -0.03339844 -10.296875 -0.22265625 C-8.63156738 -0.48187866 -8.63156738 -0.48187866 -6.93261719 -0.74633789 C-4 -1 -4 -1 0 0 Z " fill="#99C6DE" transform="translate(742,900)"/>
<path d="M0 0 C2.61998929 1.30771639 4.43632498 2.81775168 6.24609375 5.12109375 C3.25067249 4.12855446 0.2605057 3.12612559 -2.71875 2.0859375 C-8.07880097 0.23351515 -13.09719314 -1.3646596 -18.75390625 -1.87890625 C-12.82827317 -5.90833674 -5.9683271 -2.4799898 0 0 Z " fill="#E1EFC5" transform="translate(902.75390625,533.87890625)"/>
<path d="M0 0 C0.66 0 1.32 0 2 0 C0.52278578 3.45201639 -1.43794001 5.64961936 -4.125 8.25 C-4.84945312 8.95640625 -5.57390625 9.6628125 -6.3203125 10.390625 C-6.87460937 10.92171875 -7.42890625 11.4528125 -8 12 C-8 8.24111186 -7.049166 7.58681685 -4.5625 4.875 C-3.92441406 4.17117188 -3.28632812 3.46734375 -2.62890625 2.7421875 C-1.76410115 1.81724008 -0.89538137 0.89538137 0 0 Z " fill="#B5D66F" transform="translate(703,434)"/>
<path d="M0 0 C0.33 0.99 0.66 1.98 1 3 C0.67 3.33 0.34 3.66 0 4 C0.66 4.66 1.32 5.32 2 6 C1.34 7.32 0.68 8.64 0 10 C-1.32 9.67 -2.64 9.34 -4 9 C-2.94124926 5.59687262 -1.99097846 2.98646769 0 0 Z " fill="#B2D569" transform="translate(828,560)"/>
<path d="M0 0 C0.66 0 1.32 0 2 0 C0.44499019 3.81684226 -2.03595495 6.19195732 -5 9 C-5.66 8.67 -6.32 8.34 -7 8 C-5.88200014 6.66079162 -4.75538103 5.32877444 -3.625 4 C-2.68527344 2.88625 -2.68527344 2.88625 -1.7265625 1.75 C-1.15679688 1.1725 -0.58703125 0.595 0 0 Z " fill="#5A849E" transform="translate(1026,1191)"/>
<path d="M0 0 C-1.44077046 3.36179774 -3.24750021 5.59156268 -6 8 C-6.66 8 -7.32 8 -8 8 C-6.48291727 4.46014029 -4.24676932 0 0 0 Z " fill="#56819B" transform="translate(733,1194)"/>
<path d="M0 0 C-1.44077046 3.36179774 -3.24750021 5.59156268 -6 8 C-6.66 8 -7.32 8 -8 8 C-6.48291727 4.46014029 -4.24676932 0 0 0 Z " fill="#B6D770" transform="translate(368,1194)"/>
<path d="M0 0 C2 1.375 2 1.375 4 3 C4 3.66 4 4.32 4 5 C4.99 4.67 5.98 4.34 7 4 C7 4.66 7 5.32 7 6 C5.68 6 4.36 6 3 6 C2.67 5.67 2.34 5.34 2 5 C1.67 5.66 1.34 6.32 1 7 C0.01 5.35 -0.98 3.7 -2 2 C-1.34 2 -0.68 2 0 2 C0 1.34 0 0.68 0 0 Z " fill="#CBE299" transform="translate(453,547)"/>
<path d="M0 0 C0.66 0.33 1.32 0.66 2 1 C1.38125 1.721875 0.7625 2.44375 0.125 3.1875 C-1.83666353 5.78381938 -2.95316 7.94671666 -4 11 C-4.33 10.34 -4.66 9.68 -5 9 C-4.67 8.34 -4.34 7.68 -4 7 C-4.66 6.67 -5.32 6.34 -6 6 C-4.02 4.02 -2.04 2.04 0 0 Z " fill="#C7E091" transform="translate(845,541)"/>
<path d="M0 0 C0.66 0 1.32 0 2 0 C0.55746343 3.36591866 -1.33264727 5.51047079 -4 8 C-4.66 7.67 -5.32 7.34 -6 7 C-5.04882866 5.8274869 -4.08882991 4.66212985 -3.125 3.5 C-2.59132813 2.8503125 -2.05765625 2.200625 -1.5078125 1.53125 C-0.76144531 0.77328125 -0.76144531 0.77328125 0 0 Z " fill="#5D869F" transform="translate(1211,1196)"/>
<path d="M0 0 C-1.5830577 4.2742558 -4.50568404 6.26531794 -8 9 C-6.68994234 5.06982701 -4.75047804 0 0 0 Z " fill="#BDDB7E" transform="translate(255,1191)"/>
<path d="M0 0 C0.33 0.66 0.66 1.32 1 2 C-2.96 1.67 -6.92 1.34 -11 1 C-6.47118531 -1.26440734 -4.81471876 -1.090125 0 0 Z " fill="#D9EAB5" transform="translate(895,531)"/>
<path d="M0 0 C-1.28519565 2.86697492 -2.57129254 4.97607712 -5 7 C-5.66 7 -6.32 7 -7 7 C-3.86206897 0 -3.86206897 0 0 0 Z " fill="#5B849E" transform="translate(1334,1192)"/>
<path d="M0 0 C2.16874252 0.50603992 3.99967627 0.99983813 6 2 C6 2.99 6 3.98 6 5 C4.125 4.75 4.125 4.75 2 4 C0.75 1.9375 0.75 1.9375 0 0 Z " fill="#B6D76F" transform="translate(441,538)"/>
<path d="M0 0 C-1.28519565 2.86697492 -2.57129254 4.97607712 -5 7 C-5.66 7 -6.32 7 -7 7 C-3.86206897 0 -3.86206897 0 0 0 Z " fill="#B6D76F" transform="translate(454,472)"/>
<path d="M0 0 C-1.49097658 3.7952131 -3.75700849 5.61042731 -7 8 C-4.18918919 0 -4.18918919 0 0 0 Z " fill="#BFDC82" transform="translate(365,1253)"/>
<path d="M0 0 C-1.49097658 3.7952131 -3.75700849 5.61042731 -7 8 C-4.18918919 0 -4.18918919 0 0 0 Z " fill="#BEDB80" transform="translate(488,1191)"/>
<path d="M0 0 C0.66 0 1.32 0 2 0 C0.70700306 2.88437779 -0.65941363 4.87219421 -3 7 C-3.66 6.67 -4.32 6.34 -5 6 C-3.38405168 3.95880212 -1.7143618 1.95927063 0 0 Z " fill="#5F87A0" transform="translate(981,1191)"/>
<path d="M0 0 C3.465 1.98 3.465 1.98 7 4 C6.01 4.33 5.02 4.66 4 5 C3.67 5.66 3.34 6.32 3 7 C0 2.25 0 2.25 0 0 Z " fill="#98D5FA" transform="translate(238,899)"/>
<path d="M0 0 C4.75 0.75 4.75 0.75 7 3 C6.34 3 5.68 3 5 3 C4.67 3.66 4.34 4.32 4 5 C2.64567325 3.68799596 1.31266518 2.35368596 0 1 C0 0.67 0 0.34 0 0 Z " fill="#C2DD87" transform="translate(436,535)"/>
<path d="M0 0 C1.98 0.99 1.98 0.99 4 2 C3.01 2 2.02 2 1 2 C0.67 1.34 0.34 0.68 0 0 Z " fill="#EEF5DD" transform="translate(909,539)"/>
<path d="" fill="#FDFEFC" transform="translate(0,0)"/>
<path d="" fill="#FBFDF8" transform="translate(0,0)"/>
<path d="" fill="#FBFDF6" transform="translate(0,0)"/>
<path d="" fill="#FFFFFE" transform="translate(0,0)"/>
<path d="" fill="#FBFDF7" transform="translate(0,0)"/>
<path d="" fill="#F7FBEF" transform="translate(0,0)"/>
<path d="" fill="#F4F9E9" transform="translate(0,0)"/>
<path d="" fill="#EEF6DE" transform="translate(0,0)"/>
<path d="" fill="#EAF4D6" transform="translate(0,0)"/>
<path d="" fill="#EDFCFF" transform="translate(0,0)"/>
</svg>
